X Lossless Decoder version 20110417 (131.0)

XLD extraction logfile from 2011-05-02 14:15:07 +0900

Oasis / All Around the World

Used drive : MATSHITA DVD-R   UJ-868 (revision KB19)

Ripper mode             : CDParanoia III 10.2
Disable audio cache     : OK for the drive with a cache less than 2750KiB
Make use of C2 pointers : NO
Read offset correction  : 102
Max retry count         : 100
Gap status              : Analyzed, Appended

TOC of the extracted CD
     Track |   Start  |  Length  | Start sector | End sector 
    ---------------------------------------------------------
        1  | 00:00:00 | 09:38:62 |         0    |    43411   
        2  | 09:38:62 | 04:35:40 |     43412    |    64076   
        3  | 14:14:27 | 05:07:38 |     64077    |    87139   
        4  | 19:21:65 | 03:53:47 |     87140    |   104661   

AccurateRip Summary
    Track 01 : OK (confidence 3)
    Track 02 : OK (confidence 3)
    Track 03 : OK (confidence 3)
    Track 04 : OK (confidence 3)
        ->All tracks accurately ripped.

All Tracks
    Filename : /Users/m4c/Public/flac/All Around the World.flac
    CRC32 hash             : 3A817192
    CRC32 hash (skip zero) : 5EDE9898
    Statistics
        Read error                           : 0
        Skipped (treated as error)           : 0
        Edge jitter error (maybe fixed)      : 0
        Atom jitter error (maybe fixed)      : 0
        Drift error (maybe fixed)            : 0
        Dropped bytes error (maybe fixed)    : 0
        Duplicated bytes error (maybe fixed) : 0

Track 01
    Pre-gap length : 00:02:00

    CRC32 hash             : 33E1FE2C
    CRC32 hash (skip zero) : 477BE655
    AccurateRip signature  : 4FBB21DC
        ->Accurately ripped! (confidence 3)
    Statistics
        Read error                           : 0
        Skipped (treated as error)           : 0
        Edge jitter error (maybe fixed)      : 0
        Atom jitter error (maybe fixed)      : 0
        Drift error (maybe fixed)            : 0
        Dropped bytes error (maybe fixed)    : 0
        Duplicated bytes error (maybe fixed) : 0

Track 02

    CRC32 hash             : 1D8FAD3C
    CRC32 hash (skip zero) : 8BA5A7A1
    AccurateRip signature  : D1090168
        ->Accurately ripped! (confidence 3)
    Statistics
        Read error                           : 0
        Skipped (treated as error)           : 0
        Edge jitter error (maybe fixed)      : 0
        Atom jitter error (maybe fixed)      : 0
        Drift error (maybe fixed)            : 0
        Dropped bytes error (maybe fixed)    : 0
        Duplicated bytes error (maybe fixed) : 0

Track 03

    CRC32 hash             : 914CB19B
    CRC32 hash (skip zero) : F8E009B6
    AccurateRip signature  : 73B5FDD6
        ->Accurately ripped! (confidence 3)
    Statistics
        Read error                           : 0
        Skipped (treated as error)           : 0
        Edge jitter error (maybe fixed)      : 0
        Atom jitter error (maybe fixed)      : 0
        Drift error (maybe fixed)            : 0
        Dropped bytes error (maybe fixed)    : 0
        Duplicated bytes error (maybe fixed) : 0

Track 04

    CRC32 hash             : EBA87DC9
    CRC32 hash (skip zero) : BC0C2846
    AccurateRip signature  : BF1B27E2
        ->Accurately ripped! (confidence 3)
    Statistics
        Read error                           : 0
        Skipped (treated as error)           : 0
        Edge jitter error (maybe fixed)      : 0
        Atom jitter error (maybe fixed)      : 0
        Drift error (maybe fixed)            : 0
        Dropped bytes error (maybe fixed)    : 0
        Duplicated bytes error (maybe fixed) : 0

No errors occurred

End of status report
